<svg width="0" height="0">
  <symbol xmlns="http://www.w3.org/2000/svg" viewBox="0 0 512 512" id="address-book">
    <path fill="#CCC" d="M384 0H96C60.65 0 32 28.65 32 64v384c0 35.35 28.65 64 64 64h288c35.35 0 64-28.65 64-64V64C448 28.65 419.3 0 384 0zM240 128c35.35 0 64 28.65 64 64s-28.65 64-64 64c-35.34 0-64-28.65-64-64S204.7 128 240 128zM336 384h-192C135.2 384 128 376.8 128 368C128 323.8 163.8 288 208 288h64c44.18 0 80 35.82 80 80C352 376.8 344.8 384 336 384zM496 64H480v96h16C504.8 160 512 152.8 512 144v-64C512 71.16 504.8 64 496 64zM496 192H480v96h16C504.8 288 512 280.8 512 272v-64C512 199.2 504.8 192 496 192zM496 320H480v96h16c8.836 0 16-7.164 16-16v-64C512 327.2 504.8 320 496 320z"></path>
  </symbol>
  <symbol xmlns="http://www.w3.org/2000/svg" viewBox="0 0 512 512" id="download">
    <path fill="#CCC" d="M480 352h-133.5l-45.25 45.25C289.2 409.3 273.1 416 256 416s-33.16-6.656-45.25-18.75L165.5 352H32c-17.67 0-32 14.33-32 32v96c0 17.67 14.33 32 32 32h448c17.67 0 32-14.33 32-32v-96C512 366.3 497.7 352 480 352zM432 456c-13.2 0-24-10.8-24-24c0-13.2 10.8-24 24-24s24 10.8 24 24C456 445.2 445.2 456 432 456zM233.4 374.6C239.6 380.9 247.8 384 256 384s16.38-3.125 22.62-9.375l128-128c12.49-12.5 12.49-32.75 0-45.25c-12.5-12.5-32.76-12.5-45.25 0L288 274.8V32c0-17.67-14.33-32-32-32C238.3 0 224 14.33 224 32v242.8L150.6 201.4c-12.49-12.5-32.75-12.5-45.25 0c-12.49 12.5-12.49 32.75 0 45.25L233.4 374.6z"></path>
  </symbol>
  <symbol xmlns="http://www.w3.org/2000/svg" viewBox="0 0 512 512" id="envelope">
    <path fill="#CCC" d="M464 64C490.5 64 512 85.49 512 112C512 127.1 504.9 141.3 492.8 150.4L275.2 313.6C263.8 322.1 248.2 322.1 236.8 313.6L19.2 150.4C7.113 141.3 0 127.1 0 112C0 85.49 21.49 64 48 64H464zM217.6 339.2C240.4 356.3 271.6 356.3 294.4 339.2L512 176V384C512 419.3 483.3 448 448 448H64C28.65 448 0 419.3 0 384V176L217.6 339.2z"></path>
  </symbol>
  <symbol xmlns="http://www.w3.org/2000/svg" viewBox="0 0 448 512" id="flask">
    <path fill="#CCC" d="M437.2 403.5L319.1 215L319.1 64h7.1c13.25 0 23.1-10.75 23.1-24l-.0002-16c0-13.25-10.75-24-23.1-24H120C106.8 0 96.01 10.75 96.01 24l-.0002 16c0 13.25 10.75 24 23.1 24h7.1L128 215l-117.2 188.5C-18.48 450.6 15.27 512 70.89 512h306.2C432.7 512 466.5 450.5 437.2 403.5zM137.1 320l48.15-77.63C189.8 237.3 191.9 230.8 191.9 224l.0651-160h63.99l-.06 160c0 6.875 2.25 13.25 5.875 18.38L309.9 320H137.1z"></path>
  </symbol>
  <symbol xmlns="http://www.w3.org/2000/svg" viewBox="0 0 512 512" id="gear">
    <path fill="#CCC" d="M495.9 166.6C499.2 175.2 496.4 184.9 489.6 191.2L446.3 230.6C447.4 238.9 448 247.4 448 256C448 264.6 447.4 273.1 446.3 281.4L489.6 320.8C496.4 327.1 499.2 336.8 495.9 345.4C491.5 357.3 486.2 368.8 480.2 379.7L475.5 387.8C468.9 398.8 461.5 409.2 453.4 419.1C447.4 426.2 437.7 428.7 428.9 425.9L373.2 408.1C359.8 418.4 344.1 427 329.2 433.6L316.7 490.7C314.7 499.7 307.7 506.1 298.5 508.5C284.7 510.8 270.5 512 255.1 512C241.5 512 227.3 510.8 213.5 508.5C204.3 506.1 197.3 499.7 195.3 490.7L182.8 433.6C167 427 152.2 418.4 138.8 408.1L83.14 425.9C74.3 428.7 64.55 426.2 58.63 419.1C50.52 409.2 43.12 398.8 36.52 387.8L31.84 379.7C25.77 368.8 20.49 357.3 16.06 345.4C12.82 336.8 15.55 327.1 22.41 320.8L65.67 281.4C64.57 273.1 64 264.6 64 256C64 247.4 64.57 238.9 65.67 230.6L22.41 191.2C15.55 184.9 12.82 175.3 16.06 166.6C20.49 154.7 25.78 143.2 31.84 132.3L36.51 124.2C43.12 113.2 50.52 102.8 58.63 92.95C64.55 85.8 74.3 83.32 83.14 86.14L138.8 103.9C152.2 93.56 167 84.96 182.8 78.43L195.3 21.33C197.3 12.25 204.3 5.04 213.5 3.51C227.3 1.201 241.5 0 256 0C270.5 0 284.7 1.201 298.5 3.51C307.7 5.04 314.7 12.25 316.7 21.33L329.2 78.43C344.1 84.96 359.8 93.56 373.2 103.9L428.9 86.14C437.7 83.32 447.4 85.8 453.4 92.95C461.5 102.8 468.9 113.2 475.5 124.2L480.2 132.3C486.2 143.2 491.5 154.7 495.9 166.6V166.6zM256 336C300.2 336 336 300.2 336 255.1C336 211.8 300.2 175.1 256 175.1C211.8 175.1 176 211.8 176 255.1C176 300.2 211.8 336 256 336z"></path>
  </symbol>
  <symbol xmlns="http://www.w3.org/2000/svg" viewBox="0 0 512 512" id="list">
    <path fill="#CCC" d="M88 48C101.3 48 112 58.75 112 72V120C112 133.3 101.3 144 88 144H40C26.75 144 16 133.3 16 120V72C16 58.75 26.75 48 40 48H88zM480 64C497.7 64 512 78.33 512 96C512 113.7 497.7 128 480 128H192C174.3 128 160 113.7 160 96C160 78.33 174.3 64 192 64H480zM480 224C497.7 224 512 238.3 512 256C512 273.7 497.7 288 480 288H192C174.3 288 160 273.7 160 256C160 238.3 174.3 224 192 224H480zM480 384C497.7 384 512 398.3 512 416C512 433.7 497.7 448 480 448H192C174.3 448 160 433.7 160 416C160 398.3 174.3 384 192 384H480zM16 232C16 218.7 26.75 208 40 208H88C101.3 208 112 218.7 112 232V280C112 293.3 101.3 304 88 304H40C26.75 304 16 293.3 16 280V232zM88 368C101.3 368 112 378.7 112 392V440C112 453.3 101.3 464 88 464H40C26.75 464 16 453.3 16 440V392C16 378.7 26.75 368 40 368H88z"></path>
  </symbol>
  <symbol xmlns="http://www.w3.org/2000/svg" viewBox="0 0 576 512" id="piggy-bank">
    <path fill="#CCC" d="M400 96L399.1 96.66C394.7 96.22 389.4 96 384 96H256C239.5 96 223.5 98.08 208.2 102C208.1 100 208 98.02 208 96C208 42.98 250.1 0 304 0C357 0 400 42.98 400 96zM384 128C387.5 128 390.1 128.1 394.4 128.3C398.7 128.6 402.9 129 407 129.6C424.6 109.1 450.8 96 480 96H512L493.2 171.1C509.1 185.9 521.9 203.9 530.7 224H544C561.7 224 576 238.3 576 256V352C576 369.7 561.7 384 544 384H512C502.9 396.1 492.1 406.9 480 416V480C480 497.7 465.7 512 448 512H416C398.3 512 384 497.7 384 480V448H256V480C256 497.7 241.7 512 224 512H192C174.3 512 160 497.7 160 480V416C125.1 389.8 101.3 349.8 96.79 304H68C30.44 304 0 273.6 0 236C0 198.4 30.44 168 68 168H72C85.25 168 96 178.7 96 192C96 205.3 85.25 216 72 216H68C56.95 216 48 224.1 48 236C48 247 56.95 256 68 256H99.2C111.3 196.2 156.9 148.5 215.5 133.2C228.4 129.8 241.1 128 256 128H384zM424 240C410.7 240 400 250.7 400 264C400 277.3 410.7 288 424 288C437.3 288 448 277.3 448 264C448 250.7 437.3 240 424 240z"></path>
  </symbol>
  <symbol xmlns="http://www.w3.org/2000/svg" viewBox="0 0 384 512" id="play">
    <path fill="#CCC" d="M361 215C375.3 223.8 384 239.3 384 256C384 272.7 375.3 288.2 361 296.1L73.03 472.1C58.21 482 39.66 482.4 24.52 473.9C9.377 465.4 0 449.4 0 432V80C0 62.64 9.377 46.63 24.52 38.13C39.66 29.64 58.21 29.99 73.03 39.04L361 215z"></path>
  </symbol>
  <symbol xmlns="http://www.w3.org/2000/svg" viewBox="0 0 320 512" id="question">
	<path fill="#CCC" d="M204.3 32.01H96c-52.94 0-96 43.06-96 96c0 17.67 14.31 31.1 32 31.1s32-14.32 32-31.1c0-17.64 14.34-32 32-32h108.3C232.8 96.01 256 119.2 256 147.8c0 19.72-10.97 37.47-30.5 47.33L127.8 252.4C117.1 258.2 112 268.7 112 280v40c0 17.67 14.31 31.99 32 31.99s32-14.32 32-31.99V298.3L256 251.3c39.47-19.75 64-59.42 64-103.5C320 83.95 268.1 32.01 204.3 32.01zM144 400c-22.09 0-40 17.91-40 40s17.91 39.1 40 39.1s40-17.9 40-39.1S166.1 400 144 400z"/>
  </symbol>
  <symbol xmlns="http://www.w3.org/2000/svg" viewBox="0 0 640 512" id="rabbit">
	<path fill="#CCC" d="M167.4 412.7c-4.625 2.1-7.502 8.097-7.502 13.6v37.75c0 12.5 13.87 20.28 24.5 13.53l66.68-39.87l-47.81-47.8L167.4 412.7zM584.3 217.3l-56.48-34.66c-.125-13.1-2.153-30.72-7.028-48.59c-11.25-42.24-31.89-73.45-46.01-69.7c-14 3.875-16.25 41.1-5.001 83.34c.75 2.375 1.45 4.78 2.201 7.03c-5.001-5.999-10.23-12.16-16.35-18.28C424.7 105.5 391.2 88.78 380.1 99.02c-10.38 10.37 6.422 43.7 37.3 74.7c12.75 12.62 25.72 22.76 37.47 29.76c-3.125 5.749-5.754 12.03-6.879 19.28c-.5 3.125-.7502 6.217-.7502 9.342c-51.63-36.1-154.6-104.1-224.2-104.1c-52.13 0-85.21 28.27-104.7 54.14c-1.75-2.75-2.875-5.749-5.251-8.124c-18.75-18.75-49.26-18.75-67.88 0c-18.75 18.75-18.75 49.24 0 67.99c16.38 16.37 41.25 17.5 59.88 5.249l191.4 191.4c6.001 5.999 14.14 9.37 22.64 9.37l143.1-.0018c8.876 0 15.1-7.124 15.1-15.1V416c0-17.62-14.26-31.1-32.01-31.1H351.9v-55.6c0-35.5-23.89-67.14-58.02-76.89L251.5 239.4C243 237 238.1 228.1 240.5 219.6c2.375-8.499 11.39-13.37 19.77-10.1l42.39 12.12c47.88 13.62 81.26 57.91 81.26 107.7v23.6l64.03-32l103.4 .0018C582.6 320 608 294.6 608 263.4C608 244.1 599.1 227.9 584.3 217.3zM527.1 256c-8.876 0-16-7.126-16-15.1c0-8.874 7.126-15.1 16-15.1s16.01 7.125 16.01 15.1C543.1 248.9 536.9 256 527.1 256z"/>
  </symbol>
  <symbol xmlns="http://www.w3.org/2000/svg" viewBox="0 0 512 512" id="wrench">
  <path fill="#CCC" d="M507.6 122.8c-2.904-12.09-18.25-16.13-27.04-7.338l-76.55 76.56l-83.1-.0002l0-83.1l76.55-76.56c8.791-8.789 4.75-24.14-7.336-27.04c-23.69-5.693-49.34-6.111-75.92 .2484c-61.45 14.7-109.4 66.9-119.2 129.3C189.8 160.8 192.3 186.7 200.1 210.1l-178.1 178.1c-28.12 28.12-28.12 73.69 0 101.8C35.16 504.1 53.56 512 71.1 512s36.84-7.031 50.91-21.09l178.1-178.1c23.46 7.736 49.31 10.24 76.17 6.004c62.41-9.84 114.6-57.8 129.3-119.2C513.7 172.1 513.3 146.5 507.6 122.8zM80 456c-13.25 0-24-10.75-24-24c0-13.26 10.75-24 24-24s24 10.74 24 24C104 445.3 93.25 456 80 456z"/>
  </symbol>
  <symbol xmlns="http://www.w3.org/2000/svg" viewBox="0 0 512 512" id="table">
  <path fill="#CCC" d="M448 32C483.3 32 512 60.65 512 96V416C512 451.3 483.3 480 448 480H64C28.65 480 0 451.3 0 416V96C0 60.65 28.65 32 64 32H448zM232 264V160H48V264H232zM48 312V416C48 424.8 55.16 432 64 432H232V312H48zM280 432H448C456.8 432 464 424.8 464 416V312H280V432zM464 264V160H280V264H464z"/>
  </symbol>
</svg>
