<?xml version="1.0" encoding="iso-8859-1"?>
<!-- Generator: Adobe Illustrator 19.0.0, SVG Export Plug-In . SVG Version: 6.00 Build 0)  -->
<svg version="1.1" id="Layer_1" xmlns="http://www.w3.org/2000/svg" xmlns:xlink="http://www.w3.org/1999/xlink" x="0px" y="0px"
	 viewBox="0 0 337.559 337.559" style="enable-background:new 0 0 337.559 337.559;" xml:space="preserve">
<g>
	<g>
		<g>
			<path d="M337.559,67.704v-28.33c0-17.506-14.242-31.748-31.748-31.748h-54.572c-4.932-3.021-10.727-4.765-16.922-4.765H32.5
				C14.58,2.86,0,17.44,0,35.36v266.838c0,17.921,14.58,32.5,32.5,32.5h201.816c6.196,0,11.992-1.745,16.925-4.767h54.569
				c17.506,0,31.748-14.242,31.748-31.748v-28.33c0-9.715-4.391-18.42-11.287-24.248c6.896-5.828,11.287-14.533,11.287-24.248
				v-28.331c0-9.715-4.391-18.42-11.287-24.248c6.896-5.828,11.287-14.533,11.287-24.248V116.2c0-9.715-4.391-18.42-11.287-24.248
				C333.168,86.123,337.559,77.418,337.559,67.704z M251.816,302.198c0,9.649-7.851,17.5-17.5,17.5H32.5
				c-9.649,0-17.5-7.851-17.5-17.5V35.36c0-9.649,7.851-17.5,17.5-17.5h201.816c9.649,0,17.5,7.851,17.5,17.5V302.198z
				 M322.559,298.184c0,9.235-7.513,16.748-16.748,16.748h-41.595c1.673-3.912,2.601-8.216,2.601-12.733v-49.093h38.994
				c9.235,0,16.748,7.513,16.748,16.748V298.184z M322.559,221.357c0,9.235-7.513,16.748-16.748,16.748h-38.994v-61.827h38.994
				c9.235,0,16.748,7.513,16.748,16.748V221.357z M322.559,144.53c0,9.235-7.513,16.748-16.748,16.748h-38.994V99.451h38.994
				c9.235,0,16.748,7.513,16.748,16.748V144.53z M322.559,67.704c0,9.235-7.513,16.748-16.748,16.748h-38.994V35.36
				c0-4.518-0.929-8.822-2.602-12.735h41.596c9.235,0,16.748,7.513,16.748,16.748V67.704z"/>
			<rect x="40.413" y="230.024" width="185.991" height="15"/>
			<path d="M66.891,206.201h133.035c2.263,0,4.405-1.021,5.829-2.78c1.424-1.759,1.978-4.066,1.507-6.279
				c-3.595-16.907-13.071-32.176-26.474-43.02c8.782-10.818,13.689-24.438,13.689-38.522c0-33.674-27.396-61.07-61.07-61.07
				s-61.07,27.396-61.07,61.07c0,14.084,4.908,27.704,13.689,38.522c-13.402,10.844-22.878,26.112-26.472,43.02
				c-0.471,2.213,0.083,4.521,1.507,6.279C62.486,205.18,64.628,206.201,66.891,206.201z M101.343,161.584
				c1.988-1.245,3.279-3.35,3.488-5.687c0.209-2.337-0.687-4.637-2.422-6.216c-9.579-8.718-15.072-21.14-15.072-34.081
				c0-25.403,20.667-46.07,46.07-46.07c25.403,0,46.07,20.667,46.07,46.07c0,12.941-5.494,25.363-15.072,34.081
				c-1.735,1.579-2.631,3.879-2.422,6.216c0.209,2.337,1.5,4.441,3.488,5.687c11.154,6.989,19.735,17.49,24.42,29.618H76.923
				C81.608,179.074,90.189,168.571,101.343,161.584z"/>
			<rect x="63.83" y="259.688" width="139.156" height="15"/>
		</g>
	</g>
</g>
<g>
</g>
<g>
</g>
<g>
</g>
<g>
</g>
<g>
</g>
<g>
</g>
<g>
</g>
<g>
</g>
<g>
</g>
<g>
</g>
<g>
</g>
<g>
</g>
<g>
</g>
<g>
</g>
<g>
</g>
</svg>
