<svg width="300" height="60" viewBox="0 0 300 60" fill="none" xmlns="http://www.w3.org/2000/svg">
<rect width="300" height="60" rx="12" fill="#1E1E1E"/>
<path d="M103.782 29.4389L98.3754 22.3338C98.2343 22.1431 97.9522 22 97.7172 22H72.7998V37.874H97.9993C98.2343 37.874 98.4224 37.7786 98.5634 37.5879L103.829 30.7264C104.064 30.345 104.064 29.8204 103.782 29.4389ZM84.6003 35.0658H76.1378V24.7181H84.4122V27.3408H79.5228V28.5329H83.8481V31.0602H79.5228V32.3954H84.6003V35.0658ZM92.7807 35.0658L91.0412 32.3001L89.3017 35.0658H85.3995L89.0666 29.8681L85.4936 24.7658H89.3487L91.0882 27.3885L92.7807 24.7658H96.4948L92.9688 29.7727L96.7299 35.1135H92.7807V35.0658Z" fill="white"/>
<path fill-rule="evenodd" clip-rule="evenodd" d="M76.124 35.0665H84.5865V32.3961H79.509V31.0609H83.8343V28.5336H79.509V27.3414H84.3985V24.7188H76.124V35.0665ZM91.0274 32.3007L92.7669 35.0665V35.1142H96.7161L92.955 29.7734L96.481 24.7664H92.7669L91.0744 27.3891L89.3349 24.7664H85.4798L89.0528 29.8688L85.3858 35.0665H89.2879L91.0274 32.3007Z" fill="#1E1E1E"/>
<path opacity="0.95" fill-rule="evenodd" clip-rule="evenodd" d="M22.2316 31.7906C22.3025 32.3107 22.4416 32.6994 22.6491 32.9568C23.0286 33.4254 23.6788 33.6597 24.5998 33.6597C25.1514 33.6597 25.5992 33.5979 25.9433 33.4744C26.5961 33.2375 26.9225 32.7972 26.9225 32.1536C26.9225 31.7777 26.7606 31.4868 26.4367 31.2808C26.1128 31.08 25.6043 30.9023 24.911 30.7479L23.7269 30.4775C22.563 30.2098 21.7585 29.9188 21.3132 29.6047C20.5592 29.0795 20.1822 28.2582 20.1822 27.1408C20.1822 26.1213 20.5465 25.2743 21.2752 24.5997C22.0039 23.9252 23.0741 23.5879 24.486 23.5879C25.665 23.5879 26.6708 23.9058 27.503 24.5418C28.3355 25.1777 28.772 26.1007 28.8126 27.3108H26.5658C26.5253 26.6259 26.2318 26.1393 25.6853 25.851C25.3209 25.6604 24.868 25.5652 24.3266 25.5652C23.7244 25.5652 23.2437 25.6888 22.8844 25.9359C22.5251 26.1831 22.3455 26.5281 22.3455 26.9709C22.3455 27.3777 22.5226 27.6815 22.8768 27.8823C23.1045 28.0162 23.5903 28.1732 24.3342 28.3535L26.2622 28.8246C27.1071 29.0306 27.7448 29.3061 28.1749 29.6511C28.8431 30.1866 29.177 30.9615 29.177 31.976C29.177 33.0161 28.7861 33.8799 28.0041 34.5673C27.2224 35.2547 26.1179 35.5984 24.6909 35.5984C23.2335 35.5984 22.0874 35.2598 21.2524 34.5827C20.4175 33.9056 20 32.9749 20 31.7906H22.2316ZM29.8829 28.5311V26.9632H31.0366V24.6152H33.1772V26.9632H34.5205V28.5311H33.1772V32.98C33.1772 33.325 33.22 33.54 33.3059 33.625C33.3922 33.7099 33.6551 33.7524 34.0956 33.7524C34.1612 33.7524 34.2309 33.7511 34.3041 33.7486C34.3777 33.746 34.4498 33.7421 34.5205 33.737V35.3821L33.4959 35.4208C32.4738 35.4568 31.7755 35.2766 31.401 34.8801C31.1581 34.6278 31.0366 34.239 31.0366 33.7138V28.5311H29.8829ZM39.1734 28.4771C38.6727 28.4771 38.284 28.6367 38.0085 28.9559C37.7325 29.2752 37.5592 29.7077 37.4885 30.2535H40.851C40.8155 29.6717 40.6422 29.2301 40.3311 28.9289C40.02 28.6277 39.6339 28.4771 39.1734 28.4771ZM39.1734 26.662C39.8616 26.662 40.4815 26.7933 41.033 27.0559C41.5848 27.3185 42.0402 27.733 42.3995 28.2994C42.7233 28.7989 42.9332 29.3781 43.0293 30.0373C43.0852 30.4235 43.108 30.9796 43.0978 31.7056H37.4352C37.4657 32.5501 37.7264 33.1422 38.2173 33.4821C38.5157 33.6932 38.875 33.7988 39.2949 33.7988C39.7405 33.7988 40.1019 33.67 40.3804 33.4126C40.5323 33.2735 40.6665 33.0804 40.7828 32.8333H42.9916C42.9358 33.3328 42.6802 33.8399 42.2248 34.3549C41.5163 35.1736 40.5247 35.5829 39.2495 35.5829C38.197 35.5829 37.2685 35.238 36.4636 34.548C35.659 33.858 35.2569 32.7354 35.2569 31.1804C35.2569 29.7231 35.6199 28.6058 36.3461 27.8282C37.0723 27.0507 38.0146 26.662 39.1734 26.662ZM49.1169 31.2113C48.9805 31.2988 48.8424 31.3696 48.7035 31.4237C48.5643 31.4777 48.3732 31.528 48.1303 31.5743L47.6445 31.667C47.1891 31.7494 46.8628 31.8498 46.6652 31.9682C46.3312 32.169 46.1645 32.4805 46.1645 32.9028C46.1645 33.2787 46.2667 33.5503 46.4719 33.7176C46.6768 33.885 46.9259 33.9687 47.2195 33.9687C47.6851 33.9687 48.114 33.8296 48.5059 33.5516C48.8982 33.2735 49.102 32.7663 49.1169 32.03V31.2113ZM47.804 30.184C48.2036 30.1325 48.4896 30.0682 48.6615 29.9909C48.9704 29.857 49.1245 29.6485 49.1245 29.3653C49.1245 29.0203 49.007 28.7821 48.7717 28.6508C48.5364 28.5195 48.1909 28.4539 47.7355 28.4539C47.2246 28.4539 46.8628 28.5826 46.6503 28.8401C46.4984 29.0306 46.3972 29.2881 46.3465 29.6125H44.2592C44.3048 28.8761 44.5072 28.2711 44.8665 27.7974C45.4382 27.0559 46.4197 26.6851 47.8116 26.6851C48.7173 26.6851 49.5219 26.8679 50.2252 27.2335C50.9286 27.5991 51.2803 28.2891 51.2803 29.3035V33.1654C51.2803 33.4331 51.2854 33.7576 51.2955 34.1386C51.3108 34.427 51.3536 34.6226 51.4246 34.7256C51.4953 34.8286 51.6016 34.9135 51.7433 34.9805V35.3049H49.3902C49.3246 35.135 49.2789 34.9753 49.2536 34.826C49.2285 34.6767 49.2082 34.5068 49.193 34.3162C48.8943 34.6458 48.5502 34.9264 48.1608 35.1582C47.6952 35.4311 47.1688 35.5675 46.5818 35.5675C45.8331 35.5675 45.2142 35.35 44.7258 34.9148C44.2378 34.4797 43.9934 33.8631 43.9934 33.065C43.9934 32.03 44.3857 31.2808 45.1699 30.8174C45.6003 30.5651 46.2326 30.3848 47.0676 30.2767L47.804 30.184ZM55.4096 35.3049H53.2462V23.92H55.4096V35.3049ZM56.6696 28.5311V26.9632H57.8233V24.6152H59.9639V26.9632H61.3072V28.5311H59.9639V32.98C59.9639 33.325 60.007 33.54 60.0929 33.625C60.1789 33.7099 60.4421 33.7524 60.8822 33.7524C60.9482 33.7524 61.0175 33.7511 61.0911 33.7486C61.1643 33.746 61.2365 33.7421 61.3072 33.737V35.3821L60.2826 35.4208C59.2605 35.4568 58.5622 35.2766 58.1876 34.8801C57.9447 34.6278 57.8233 34.239 57.8233 33.7138V28.5311H56.6696ZM67.2584 26.6697C67.7693 26.6697 68.2337 26.7598 68.651 26.94C69.0687 27.1202 69.4113 27.3957 69.6796 27.7665C69.9073 28.0806 70.0466 28.4037 70.0969 28.7358C70.1477 29.0679 70.1731 29.6099 70.1731 30.3617V35.3049H67.9643V30.184C67.9643 29.7309 67.8882 29.3653 67.7366 29.0872C67.539 28.6959 67.1645 28.5002 66.613 28.5002C66.0413 28.5002 65.6073 28.6946 65.3114 29.0834C65.0152 29.4722 64.8672 30.027 64.8672 30.7479V35.3049H62.7114V23.9586H64.8672V27.9827C65.1809 27.4935 65.5442 27.1524 65.9564 26.9593C66.369 26.7662 66.803 26.6697 67.2584 26.6697Z" fill="white"/>
<rect width="1" height="16" transform="matrix(1 0 0 -1 112 38)" fill="#737373"/>
<path d="M163.978 27.6406C163.889 27.3295 163.763 27.0547 163.601 26.8161C163.439 26.5732 163.241 26.3686 163.007 26.2024C162.777 26.032 162.512 25.902 162.214 25.8125C161.92 25.723 161.594 25.6783 161.236 25.6783C160.567 25.6783 159.979 25.8445 159.472 26.1768C158.969 26.5092 158.577 26.9929 158.296 27.6278C158.015 28.2585 157.874 29.0298 157.874 29.9418C157.874 30.8537 158.012 31.6293 158.289 32.2685C158.566 32.9077 158.958 33.3956 159.466 33.7322C159.973 34.0646 160.571 34.2308 161.262 34.2308C161.888 34.2308 162.423 34.12 162.866 33.8984C163.314 33.6726 163.654 33.3551 163.889 32.946C164.127 32.5369 164.247 32.0533 164.247 31.495L164.809 31.5781H161.434V29.4943H166.912V31.1435C166.912 32.294 166.669 33.2827 166.184 34.1094C165.698 34.9318 165.029 35.5668 164.176 36.0142C163.324 36.4574 162.348 36.679 161.249 36.679C160.022 36.679 158.944 36.4084 158.015 35.8672C157.086 35.3217 156.361 34.5483 155.841 33.5469C155.326 32.5412 155.068 31.348 155.068 29.9673C155.068 28.9062 155.221 27.9602 155.528 27.1293C155.839 26.294 156.274 25.5866 156.832 25.0071C157.39 24.4276 158.04 23.9865 158.782 23.6839C159.523 23.3814 160.326 23.2301 161.191 23.2301C161.933 23.2301 162.623 23.3388 163.262 23.5561C163.902 23.7692 164.468 24.0717 164.963 24.4638C165.461 24.8558 165.868 25.3224 166.184 25.8636C166.499 26.4006 166.701 26.9929 166.791 27.6406H163.978ZM173.415 36.6918C172.405 36.6918 171.535 36.4872 170.807 36.0781C170.082 35.6648 169.524 35.081 169.132 34.3267C168.74 33.5682 168.544 32.6712 168.544 31.6357C168.544 30.6257 168.74 29.7393 169.132 28.9766C169.524 28.2138 170.076 27.6193 170.787 27.1932C171.503 26.767 172.343 26.554 173.306 26.554C173.954 26.554 174.557 26.6584 175.115 26.8672C175.677 27.0717 176.167 27.3807 176.585 27.794C177.007 28.2074 177.335 28.7273 177.569 29.3537C177.804 29.9759 177.921 30.7045 177.921 31.5398V32.2876H169.631V30.6001H175.358C175.358 30.2081 175.273 29.8608 175.102 29.5582C174.932 29.2557 174.695 29.0192 174.393 28.8487C174.094 28.674 173.747 28.5866 173.351 28.5866C172.937 28.5866 172.571 28.6825 172.251 28.8743C171.936 29.0618 171.689 29.3153 171.51 29.6349C171.331 29.9503 171.239 30.3018 171.235 30.6896V32.294C171.235 32.7798 171.324 33.1996 171.503 33.5533C171.687 33.907 171.944 34.1797 172.277 34.3714C172.609 34.5632 173.003 34.6591 173.459 34.6591C173.762 34.6591 174.039 34.6165 174.29 34.5312C174.542 34.446 174.757 34.3182 174.936 34.1477C175.115 33.9773 175.251 33.7685 175.345 33.5213L177.863 33.6875C177.736 34.2926 177.474 34.821 177.077 35.2727C176.685 35.7202 176.178 36.0696 175.556 36.321C174.938 36.5682 174.224 36.6918 173.415 36.6918ZM184.92 26.6818V28.7273H179.008V26.6818H184.92ZM180.35 24.3295H183.073V33.483C183.073 33.7344 183.111 33.9304 183.188 34.071C183.265 34.2074 183.371 34.3033 183.508 34.3587C183.648 34.4141 183.81 34.4418 183.993 34.4418C184.121 34.4418 184.249 34.4311 184.377 34.4098C184.505 34.3842 184.603 34.3651 184.671 34.3523L185.099 36.3786C184.963 36.4212 184.771 36.4702 184.524 36.5256C184.277 36.5852 183.976 36.6214 183.623 36.6342C182.966 36.6598 182.391 36.5724 181.897 36.3722C181.407 36.1719 181.025 35.8608 180.753 35.4389C180.48 35.017 180.346 34.4844 180.35 33.8409V24.3295ZM202.462 27.9922H199.662C199.611 27.63 199.506 27.3082 199.349 27.027C199.191 26.7415 198.989 26.4986 198.741 26.2983C198.494 26.098 198.209 25.9446 197.885 25.8381C197.565 25.7315 197.218 25.6783 196.843 25.6783C196.165 25.6783 195.575 25.8466 195.072 26.1832C194.57 26.5156 194.18 27.0014 193.903 27.6406C193.626 28.2756 193.487 29.0469 193.487 29.9545C193.487 30.8878 193.626 31.6719 193.903 32.3068C194.184 32.9418 194.576 33.4212 195.079 33.745C195.582 34.0689 196.163 34.2308 196.824 34.2308C197.195 34.2308 197.538 34.1818 197.853 34.0838C198.173 33.9858 198.456 33.843 198.703 33.6555C198.95 33.4638 199.155 33.2315 199.317 32.9588C199.483 32.6861 199.598 32.375 199.662 32.0256L202.462 32.0384C202.389 32.6392 202.208 33.2188 201.918 33.777C201.633 34.331 201.247 34.8274 200.761 35.2663C200.28 35.701 199.705 36.0462 199.036 36.3018C198.371 36.5533 197.619 36.679 196.779 36.679C195.612 36.679 194.567 36.4148 193.647 35.8864C192.731 35.358 192.006 34.593 191.474 33.5916C190.945 32.5902 190.681 31.3778 190.681 29.9545C190.681 28.527 190.95 27.3125 191.487 26.3111C192.023 25.3097 192.752 24.5469 193.673 24.0227C194.593 23.4943 195.629 23.2301 196.779 23.2301C197.538 23.2301 198.241 23.3366 198.888 23.5497C199.54 23.7628 200.118 24.0739 200.621 24.483C201.124 24.8878 201.533 25.3842 201.848 25.9723C202.168 26.5604 202.372 27.2337 202.462 27.9922ZM204.395 36.5V26.6818H207.035V28.3949H207.137C207.316 27.7855 207.617 27.3253 208.039 27.0142C208.461 26.6989 208.946 26.5412 209.496 26.5412C209.632 26.5412 209.779 26.5497 209.937 26.5668C210.095 26.5838 210.233 26.6072 210.353 26.6371V29.0533C210.225 29.0149 210.048 28.9808 209.822 28.951C209.596 28.9212 209.39 28.9062 209.202 28.9062C208.801 28.9062 208.444 28.9936 208.128 29.1683C207.817 29.3388 207.57 29.5774 207.387 29.8842C207.208 30.1911 207.118 30.5447 207.118 30.9453V36.5H204.395ZM213.74 40.1818C213.395 40.1818 213.071 40.1541 212.769 40.0987C212.471 40.0476 212.223 39.9815 212.027 39.9006L212.641 37.8679C212.961 37.9659 213.248 38.0192 213.504 38.0277C213.764 38.0362 213.988 37.9766 214.175 37.8487C214.367 37.7209 214.522 37.5036 214.642 37.1967L214.801 36.7812L211.279 26.6818H214.143L216.176 33.892H216.278L218.33 26.6818H221.213L217.397 37.5611C217.213 38.0895 216.964 38.5497 216.649 38.9418C216.338 39.3381 215.944 39.6428 215.466 39.8558C214.989 40.0732 214.414 40.1818 213.74 40.1818ZM222.606 40.1818V26.6818H225.291V28.331H225.412C225.532 28.0668 225.704 27.7983 225.93 27.5256C226.16 27.2486 226.458 27.0185 226.825 26.8352C227.196 26.6477 227.656 26.554 228.206 26.554C228.922 26.554 229.582 26.7415 230.187 27.1165C230.792 27.4872 231.276 28.0476 231.638 28.7976C232 29.5433 232.181 30.4787 232.181 31.6037C232.181 32.6989 232.005 33.6236 231.651 34.3778C231.301 35.1278 230.824 35.6967 230.219 36.0845C229.618 36.468 228.945 36.6598 228.199 36.6598C227.671 36.6598 227.221 36.5724 226.85 36.3977C226.484 36.223 226.184 36.0036 225.949 35.7393C225.715 35.4709 225.536 35.2003 225.412 34.9276H225.329V40.1818H222.606ZM225.272 31.5909C225.272 32.1747 225.353 32.6839 225.515 33.1186C225.676 33.5533 225.911 33.892 226.218 34.1349C226.525 34.3736 226.897 34.4929 227.336 34.4929C227.779 34.4929 228.154 34.3714 228.461 34.1286C228.768 33.8814 229 33.5405 229.158 33.1058C229.32 32.6669 229.401 32.1619 229.401 31.5909C229.401 31.0241 229.322 30.5256 229.164 30.0952C229.007 29.6648 228.775 29.3281 228.468 29.0852C228.161 28.8423 227.784 28.7209 227.336 28.7209C226.893 28.7209 226.518 28.8381 226.211 29.0724C225.909 29.3068 225.676 29.6392 225.515 30.0696C225.353 30.5 225.272 31.0071 225.272 31.5909ZM239.219 26.6818V28.7273H233.306V26.6818H239.219ZM234.649 24.3295H237.372V33.483C237.372 33.7344 237.41 33.9304 237.487 34.071C237.564 34.2074 237.67 34.3033 237.806 34.3587C237.947 34.4141 238.109 34.4418 238.292 34.4418C238.42 34.4418 238.548 34.4311 238.676 34.4098C238.804 34.3842 238.902 34.3651 238.97 34.3523L239.398 36.3786C239.262 36.4212 239.07 36.4702 238.823 36.5256C238.576 36.5852 238.275 36.6214 237.922 36.6342C237.265 36.6598 236.69 36.5724 236.196 36.3722C235.706 36.1719 235.324 35.8608 235.051 35.4389C234.779 35.017 234.645 34.4844 234.649 33.8409V24.3295ZM245.324 36.6918C244.331 36.6918 243.472 36.4808 242.748 36.0589C242.027 35.6328 241.471 35.0405 241.079 34.282C240.687 33.5192 240.491 32.6349 240.491 31.6293C240.491 30.6151 240.687 29.7287 241.079 28.9702C241.471 28.2074 242.027 27.6151 242.748 27.1932C243.472 26.767 244.331 26.554 245.324 26.554C246.316 26.554 247.173 26.767 247.893 27.1932C248.618 27.6151 249.176 28.2074 249.568 28.9702C249.96 29.7287 250.156 30.6151 250.156 31.6293C250.156 32.6349 249.96 33.5192 249.568 34.282C249.176 35.0405 248.618 35.6328 247.893 36.0589C247.173 36.4808 246.316 36.6918 245.324 36.6918ZM245.336 34.5824C245.788 34.5824 246.165 34.4545 246.468 34.1989C246.77 33.9389 246.998 33.5852 247.152 33.1378C247.309 32.6903 247.388 32.1811 247.388 31.6101C247.388 31.0391 247.309 30.5298 247.152 30.0824C246.998 29.6349 246.77 29.2812 246.468 29.0213C246.165 28.7614 245.788 28.6314 245.336 28.6314C244.88 28.6314 244.497 28.7614 244.186 29.0213C243.879 29.2812 243.647 29.6349 243.489 30.0824C243.336 30.5298 243.259 31.0391 243.259 31.6101C243.259 32.1811 243.336 32.6903 243.489 33.1378C243.647 33.5852 243.879 33.9389 244.186 34.1989C244.497 34.4545 244.88 34.5824 245.336 34.5824Z" fill="white"/>
</svg>
