<svg version="1.1" id="Capa_1" xmlns="http://www.w3.org/2000/svg" xmlns:xlink="http://www.w3.org/1999/xlink" x="0px" y="0px"
     viewBox="0 0 392.204 392.204" style="enable-background:new 0 0 392.204 392.204;" xml:space="preserve">
	<g>
		<path style="fill:#010002;" d="M381.71,194.939h-6.779V93.479c0-4.487-3.633-8.129-8.129-8.129h-14.908V8.129
			c0-4.487-3.633-8.129-8.129-8.129H53.169C25.158,0,2.365,22.793,2.365,50.804c0,0.309,0.041,0.602,0.049,0.91
			c0,0.081-0.049,0.154-0.049,0.228V341.4c0,28.011,22.793,50.804,50.804,50.804h313.633c4.495,0,8.129-3.633,8.129-8.129v-98.624
			h6.779c4.495,0,8.129-3.633,8.129-8.129v-74.255C389.838,198.581,386.205,194.939,381.71,194.939z M373.581,269.194h-6.779
			h-87.886l-18.891-27.093l19.175-30.905h87.602h6.779V269.194z M53.169,16.257h282.468V85.35H53.169
			c-19.045,0-34.546-15.501-34.546-34.546S34.124,16.257,53.169,16.257z M358.673,375.947H53.169
			c-19.045,0-34.546-15.493-34.546-34.546V89.227c6.357,5.861,14.29,10.136,23.264,12.185c0.593,0.138,1.195,0.203,1.805,0.203
			h9.478h290.597h14.908v93.332h-83.993c-2.812,0-5.422,1.455-6.909,3.845l-24.386,39.294c-1.715,2.764-1.618,6.267,0.236,8.941
			l24.386,34.961c1.528,2.178,4.007,3.479,6.665,3.479h84.001V375.947z"/>
        <path style="fill:#010002;" d="M296.352,218.52c-11.957,0-21.679,9.73-21.679,21.687c0,11.949,9.722,21.671,21.679,21.671
			c11.957,0,21.679-9.722,21.679-21.671C318.03,228.25,308.309,218.52,296.352,218.52z M296.352,245.621
			c-2.991,0-5.422-2.43-5.422-5.414c0-2.991,2.43-5.43,5.422-5.43c2.991,0,5.422,2.439,5.422,5.43
			C301.773,243.191,299.343,245.621,296.352,245.621z"/>
	</g>
</svg>
