<svg version="1.1" viewBox="0.0 0.0 855.0 661.0" fill="none" stroke="none" stroke-linecap="square" stroke-miterlimit="10" width="855" height="661" xmlns:xlink="http://www.w3.org/1999/xlink" xmlns="http://www.w3.org/2000/svg"><path fill="#ffffff" d="M0 0L855.0 0L855.0 661.0L0 661.0L0 0Z" fill-rule="nonzero"/><path stroke="#333333" stroke-width="1.0" stroke-linecap="butt" d="M76.5 86.5L76.5 607.5" fill-rule="nonzero"/><path stroke="#cccccc" stroke-width="1.0" stroke-linecap="butt" d="M261.5 86.5L261.5 607.5" fill-rule="nonzero"/><path stroke="#cccccc" stroke-width="1.0" stroke-linecap="butt" d="M446.5 86.5L446.5 607.5" fill-rule="nonzero"/><path stroke="#cccccc" stroke-width="1.0" stroke-linecap="butt" d="M630.5 86.5L630.5 607.5" fill-rule="nonzero"/><path stroke="#cccccc" stroke-width="1.0" stroke-linecap="butt" d="M815.5 86.5L815.5 607.5" fill-rule="nonzero"/><path stroke="#cccccc" stroke-width="1.0" stroke-linecap="butt" d="M70.5 495.5L821.5 495.5" fill-rule="nonzero"/><path stroke="#cccccc" stroke-width="1.0" stroke-linecap="butt" d="M70.5 443.5L821.5 443.5" fill-rule="nonzero"/><path stroke="#cccccc" stroke-width="1.0" stroke-linecap="butt" d="M70.5 323.5L821.5 323.5" fill-rule="nonzero"/><path stroke="#cccccc" stroke-width="1.0" stroke-linecap="butt" d="M70.5 271.5L821.5 271.5" fill-rule="nonzero"/><path stroke="#cccccc" stroke-width="1.0" stroke-linecap="butt" d="M70.5 151.5L821.5 151.5" fill-rule="nonzero"/><path stroke="#cccccc" stroke-width="1.0" stroke-linecap="butt" d="M70.5 99.5L821.5 99.5" fill-rule="nonzero"/><clipPath id="id_0"><path d="M70.05 86.083336L821.95 86.083336L821.95 607.95L70.05 607.95L70.05 86.083336Z" clip-rule="nonzero"/></clipPath><path fill="#4285f4" clip-path="url(#id_0)" d="M118.32984 607.95C118.32984 610.4353 116.315125 612.45 113.82984 612.45C111.34456 612.45 109.32984 610.4353 109.32984 607.95C109.32984 605.4647 111.34456 603.45 113.82984 603.45C116.315125 603.45 118.32984 605.4647 118.32984 607.95Z" fill-rule="nonzero"/><path fill="#4285f4" clip-path="url(#id_0)" d="M325.0135 518.7455C325.0135 521.2308 322.99878 523.2455 320.5135 523.2455C318.02823 523.2455 316.0135 521.2308 316.0135 518.7455C316.0135 516.2602 318.02823 514.2455 320.5135 514.2455C322.99878 514.2455 325.0135 516.2602 325.0135 518.7455Z" fill-rule="nonzero"/><path fill="#4285f4" clip-path="url(#id_0)" d="M509.55246 506.90527C509.55246 509.39056 507.53775 511.40527 505.05246 511.40527C502.5672 511.40527 500.55246 509.39056 500.55246 506.90527C500.55246 504.41998 502.5672 502.40527 505.05246 502.40527C507.53775 502.40527 509.55246 504.41998 509.55246 506.90527Z" fill-rule="nonzero"/><path fill="#4285f4" clip-path="url(#id_0)" d="M642.42053 508.2047C642.42053 510.69 640.4058 512.7047 637.92053 512.7047C635.43524 512.7047 633.42053 510.69 633.42053 508.2047C633.42053 505.71942 635.43524 503.7047 637.92053 503.7047C640.4058 503.7047 642.42053 505.71942 642.42053 508.2047Z" fill-rule="nonzero"/><path fill="#4285f4" clip-path="url(#id_0)" d="M679.3283 520.11646C679.3283 522.60175 677.3136 524.61646 674.8283 524.61646C672.3431 524.61646 670.3283 522.60175 670.3283 520.11646C670.3283 517.63116 672.3431 515.61646 674.8283 515.61646C677.3136 515.61646 679.3283 517.63116 679.3283 520.11646Z" fill-rule="nonzero"/><path fill="#4285f4" clip-path="url(#id_0)" d="M701.473 531.0215C701.473 533.5067 699.4583 535.5215 696.973 535.5215C694.48773 535.5215 692.473 533.5067 692.473 531.0215C692.473 528.5362 694.48773 526.5215 696.973 526.5215C699.4583 526.5215 701.473 528.5362 701.473 531.0215Z" fill-rule="nonzero"/><path fill="#4285f4" clip-path="url(#id_0)" d="M723.6177 539.91705C723.6177 542.40234 721.60297 544.41705 719.1177 544.41705C716.6324 544.41705 714.6177 542.40234 714.6177 539.91705C714.6177 537.43176 716.6324 535.41705 719.1177 535.41705C721.60297 535.41705 723.6177 537.43176 723.6177 539.91705Z" fill-rule="nonzero"/><path fill="#4285f4" clip-path="url(#id_0)" d="M760.52545 545.71875C760.52545 548.20404 758.51074 550.21875 756.02545 550.21875C753.5402 550.21875 751.52545 548.20404 751.52545 545.71875C751.52545 543.23346 753.5402 541.21875 756.02545 541.21875C758.51074 541.21875 760.52545 543.23346 760.52545 545.71875Z" fill-rule="nonzero"/><path fill="#4285f4" clip-path="url(#id_0)" d="M790.0517 551.3391C790.0517 553.8244 788.037 555.8391 785.5517 555.8391C783.0664 555.8391 781.0517 553.8244 781.0517 551.3391C781.0517 548.8538 783.0664 546.8391 785.5517 546.8391C788.037 546.8391 790.0517 548.8538 790.0517 551.3391Z" fill-rule="nonzero"/><path fill="#4285f4" clip-path="url(#id_0)" d="M819.57794 556.16113C819.57794 558.6464 817.56323 560.66113 815.07794 560.66113C812.59265 560.66113 810.57794 558.6464 810.57794 556.16113C810.57794 553.67584 812.59265 551.66113 815.07794 551.66113C817.56323 551.66113 819.57794 553.67584 819.57794 556.16113Z" fill-rule="nonzero"/><path fill="#ea4335" clip-path="url(#id_0)" d="M315.11185 100.50699C315.11185 102.99227 313.09714 105.00699 310.61185 105.00699C308.1266 105.00699 306.11185 102.99227 306.11185 100.50699C306.11185 98.02171 308.1266 96.00699 310.61185 96.00699C313.09714 96.00699 315.11185 98.02171 315.11185 100.50699Z" fill-rule="nonzero"/><path fill="#ea4335" clip-path="url(#id_0)" d="M405.13086 106.45549C405.13086 108.94077 403.11615 110.95549 400.63086 110.95549C398.1456 110.95549 396.13086 108.94077 396.13086 106.45549C396.13086 103.97021 398.1456 101.95549 400.63086 101.95549C403.11615 101.95549 405.13086 103.97021 405.13086 106.45549Z" fill-rule="nonzero"/><path fill="#ea4335" clip-path="url(#id_0)" d="M495.14987 109.61731C495.14987 112.10259 493.13516 114.11731 490.64987 114.11731C488.1646 114.11731 486.14987 112.10259 486.14987 109.61731C486.14987 107.132034 488.1646 105.11731 490.64987 105.11731C493.13516 105.11731 495.14987 107.132034 495.14987 109.61731Z" fill-rule="nonzero"/><path fill="#ea4335" clip-path="url(#id_0)" d="M585.1689 111.58069C585.1689 114.06597 583.1542 116.08069 580.6689 116.08069C578.1836 116.08069 576.1689 114.06597 576.1689 111.58069C576.1689 109.095406 578.1836 107.08069 580.6689 107.08069C583.1542 107.08069 585.1689 109.095406 585.1689 111.58069Z" fill-rule="nonzero"/><path fill="#ea4335" clip-path="url(#id_0)" d="M675.1879 112.91887C675.1879 115.40415 673.1732 117.41887 670.6879 117.41887C668.20264 117.41887 666.1879 115.40415 666.1879 112.91887C666.1879 110.433586 668.20264 108.41887 670.6879 108.41887C673.1732 108.41887 675.1879 110.433586 675.1879 112.91887Z" fill-rule="nonzero"/><path fill="#ea4335" clip-path="url(#id_0)" d="M819.57794 108.173C819.57794 110.65827 817.56323 112.673 815.07794 112.673C812.59265 112.673 810.57794 110.65827 810.57794 108.173C810.57794 105.68771 812.59265 103.673 815.07794 103.673C817.56323 103.673 819.57794 105.68771 819.57794 108.173Z" fill-rule="nonzero"/><path fill="#000000" d="M33.55 495.3377Q33.55 493.80646 33.8625 492.88458Q34.175 491.94708 34.784374 491.44708Q35.409374 490.94708 36.346874 490.94708Q37.034374 490.94708 37.55 491.22833Q38.08125 491.50958 38.425 492.04083Q38.76875 492.55646 38.95625 493.30646Q39.14375 494.05646 39.14375 495.3377Q39.14375 496.85333 38.83125 497.7752Q38.534374 498.69708 37.909374 499.2127Q37.3 499.7127 36.346874 499.7127Q35.1125 499.7127 34.39375 498.82208Q33.55 497.75958 33.55 495.3377ZM34.628124 495.3377Q34.628124 497.44708 35.128124 498.1502Q35.628124 498.85333 36.346874 498.85333Q37.08125 498.85333 37.565624 498.1502Q38.065624 497.44708 38.065624 495.3377Q38.065624 493.2127 37.565624 492.5252Q37.08125 491.82208 36.33125 491.82208Q35.6125 491.82208 35.175 492.43146Q34.628124 493.2127 34.628124 495.3377ZM41.14375 499.57208L41.14375 498.36896L42.346874 498.36896L42.346874 499.57208L41.14375 499.57208ZM43.55 495.3377Q43.55 493.80646 43.8625 492.88458Q44.175 491.94708 44.784374 491.44708Q45.409374 490.94708 46.346874 490.94708Q47.034374 490.94708 47.55 491.22833Q48.08125 491.50958 48.425 492.04083Q48.76875 492.55646 48.95625 493.30646Q49.14375 494.05646 49.14375 495.3377Q49.14375 496.85333 48.83125 497.7752Q48.534374 498.69708 47.909374 499.2127Q47.3 499.7127 46.346874 499.7127Q45.1125 499.7127 44.39375 498.82208Q43.55 497.75958 43.55 495.3377ZM44.628124 495.3377Q44.628124 497.44708 45.128124 498.1502Q45.628124 498.85333 46.346874 498.85333Q47.08125 498.85333 47.565624 498.1502Q48.065624 497.44708 48.065624 495.3377Q48.065624 493.2127 47.565624 492.5252Q47.08125 491.82208 46.33125 491.82208Q45.6125 491.82208 45.175 492.43146Q44.628124 493.2127 44.628124 495.3377ZM50.55 495.3377Q50.55 493.80646 50.8625 492.88458Q51.175 491.94708 51.784374 491.44708Q52.409374 490.94708 53.346874 490.94708Q54.034374 490.94708 54.55 491.22833Q55.08125 491.50958 55.425 492.04083Q55.76875 492.55646 55.95625 493.30646Q56.14375 494.05646 56.14375 495.3377Q56.14375 496.85333 55.83125 497.7752Q55.534374 498.69708 54.909374 499.2127Q54.3 499.7127 53.346874 499.7127Q52.1125 499.7127 51.39375 498.82208Q50.55 497.75958 50.55 495.3377ZM51.628124 495.3377Q51.628124 497.44708 52.128124 498.1502Q52.628124 498.85333 53.346874 498.85333Q54.08125 498.85333 54.565624 498.1502Q55.065624 497.44708 55.065624 495.3377Q55.065624 493.2127 54.565624 492.5252Q54.08125 491.82208 53.33125 491.82208Q52.6125 491.82208 52.175 492.43146Q51.628124 493.2127 51.628124 495.3377ZM57.55 497.32208L58.659374 497.22833Q58.784374 498.04083 59.221874 498.44708Q59.675 498.85333 60.315624 498.85333Q61.065624 498.85333 61.596874 498.2752Q62.128124 497.69708 62.128124 496.75958Q62.128124 495.85333 61.6125 495.3377Q61.1125 494.80646 60.284374 494.80646Q59.784374 494.80646 59.3625 495.04083Q58.95625 495.2752 58.721874 495.63458L57.7375 495.50958L58.565624 491.10333L62.846874 491.10333L62.846874 492.10333L59.409374 492.10333L58.95625 494.41583Q59.721874 493.86896 60.565624 493.86896Q61.690624 493.86896 62.45625 494.6502Q63.2375 495.43146 63.2375 496.66583Q63.2375 497.82208 62.565624 498.68146Q61.7375 499.7127 60.315624 499.7127Q59.14375 499.7127 58.39375 499.05646Q57.659374 498.4002 57.55 497.32208Z" fill-rule="nonzero"/><path fill="#000000" d="M40.55 443.54886Q40.55 442.0176 40.8625 441.09573Q41.175 440.15823 41.784374 439.65823Q42.409374 439.15823 43.346874 439.15823Q44.034374 439.15823 44.55 439.43948Q45.08125 439.72073 45.425 440.25198Q45.76875 440.7676 45.95625 441.5176Q46.14375 442.2676 46.14375 443.54886Q46.14375 445.06448 45.83125 445.98636Q45.534374 446.90823 44.909374 447.42386Q44.3 447.92386 43.346874 447.92386Q42.1125 447.92386 41.39375 447.03323Q40.55 445.97073 40.55 443.54886ZM41.628124 443.54886Q41.628124 445.65823 42.128124 446.36136Q42.628124 447.06448 43.346874 447.06448Q44.08125 447.06448 44.565624 446.36136Q45.065624 445.65823 45.065624 443.54886Q45.065624 441.42386 44.565624 440.73636Q44.08125 440.03323 43.33125 440.03323Q42.6125 440.03323 42.175 440.6426Q41.628124 441.42386 41.628124 443.54886ZM48.14375 447.78323L48.14375 446.5801L49.346874 446.5801L49.346874 447.78323L48.14375 447.78323ZM50.55 443.54886Q50.55 442.0176 50.8625 441.09573Q51.175 440.15823 51.784374 439.65823Q52.409374 439.15823 53.346874 439.15823Q54.034374 439.15823 54.55 439.43948Q55.08125 439.72073 55.425 440.25198Q55.76875 440.7676 55.95625 441.5176Q56.14375 442.2676 56.14375 443.54886Q56.14375 445.06448 55.83125 445.98636Q55.534374 446.90823 54.909374 447.42386Q54.3 447.92386 53.346874 447.92386Q52.1125 447.92386 51.39375 447.03323Q50.55 445.97073 50.55 443.54886ZM51.628124 443.54886Q51.628124 445.65823 52.128124 446.36136Q52.628124 447.06448 53.346874 447.06448Q54.08125 447.06448 54.565624 446.36136Q55.065624 445.65823 55.065624 443.54886Q55.065624 441.42386 54.565624 440.73636Q54.08125 440.03323 53.33125 440.03323Q52.6125 440.03323 52.175 440.6426Q51.628124 441.42386 51.628124 443.54886ZM61.51875 447.78323L60.471874 447.78323L60.471874 441.06448Q60.08125 441.42386 59.45625 441.79886Q58.846874 442.15823 58.3625 442.3301L58.3625 441.31448Q59.2375 440.8926 59.89375 440.31448Q60.565624 439.72073 60.846874 439.15823L61.51875 439.15823L61.51875 447.78323Z" fill-rule="nonzero"/><path fill="#000000" d="M40.55 323.2989Q40.55 321.76764 40.8625 320.84576Q41.175 319.90826 41.784374 319.40826Q42.409374 318.90826 43.346874 318.90826Q44.034374 318.90826 44.55 319.1895Q45.08125 319.47076 45.425 320.002Q45.76875 320.51764 45.95625 321.26764Q46.14375 322.01764 46.14375 323.2989Q46.14375 324.8145 45.83125 325.7364Q45.534374 326.65826 44.909374 327.1739Q44.3 327.6739 43.346874 327.6739Q42.1125 327.6739 41.39375 326.78326Q40.55 325.72076 40.55 323.2989ZM41.628124 323.2989Q41.628124 325.40826 42.128124 326.1114Q42.628124 326.8145 43.346874 326.8145Q44.08125 326.8145 44.565624 326.1114Q45.065624 325.40826 45.065624 323.2989Q45.065624 321.1739 44.565624 320.4864Q44.08125 319.78326 43.33125 319.78326Q42.6125 319.78326 42.175 320.39264Q41.628124 321.1739 41.628124 323.2989ZM48.14375 327.53326L48.14375 326.33014L49.346874 326.33014L49.346874 327.53326L48.14375 327.53326ZM50.55 323.2989Q50.55 321.76764 50.8625 320.84576Q51.175 319.90826 51.784374 319.40826Q52.409374 318.90826 53.346874 318.90826Q54.034374 318.90826 54.55 319.1895Q55.08125 319.47076 55.425 320.002Q55.76875 320.51764 55.95625 321.26764Q56.14375 322.01764 56.14375 323.2989Q56.14375 324.8145 55.83125 325.7364Q55.534374 326.65826 54.909374 327.1739Q54.3 327.6739 53.346874 327.6739Q52.1125 327.6739 51.39375 326.78326Q50.55 325.72076 50.55 323.2989ZM51.628124 323.2989Q51.628124 325.40826 52.128124 326.1114Q52.628124 326.8145 53.346874 326.8145Q54.08125 326.8145 54.565624 326.1114Q55.065624 325.40826 55.065624 323.2989Q55.065624 321.1739 54.565624 320.4864Q54.08125 319.78326 53.33125 319.78326Q52.6125 319.78326 52.175 320.39264Q51.628124 321.1739 51.628124 323.2989ZM57.55 325.28326L58.659374 325.1895Q58.784374 326.002 59.221874 326.40826Q59.675 326.8145 60.315624 326.8145Q61.065624 326.8145 61.596874 326.2364Q62.128124 325.65826 62.128124 324.72076Q62.128124 323.8145 61.6125 323.2989Q61.1125 322.76764 60.284374 322.76764Q59.784374 322.76764 59.3625 323.002Q58.95625 323.2364 58.721874 323.59576L57.7375 323.47076L58.565624 319.0645L62.846874 319.0645L62.846874 320.0645L59.409374 320.0645L58.95625 322.377Q59.721874 321.83014 60.565624 321.83014Q61.690624 321.83014 62.45625 322.6114Q63.2375 323.39264 63.2375 324.627Q63.2375 325.78326 62.565624 326.64264Q61.7375 327.6739 60.315624 327.6739Q59.14375 327.6739 58.39375 327.01764Q57.659374 326.3614 57.55 325.28326Z" fill-rule="nonzero"/><path fill="#000000" d="M47.55 271.51004Q47.55 269.9788 47.8625 269.05692Q48.175 268.11942 48.784374 267.61942Q49.409374 267.11942 50.346874 267.11942Q51.034374 267.11942 51.55 267.40067Q52.08125 267.68192 52.425 268.21317Q52.76875 268.7288 52.95625 269.4788Q53.14375 270.2288 53.14375 271.51004Q53.14375 273.02567 52.83125 273.94754Q52.534374 274.86942 51.909374 275.38504Q51.3 275.88504 50.346874 275.88504Q49.1125 275.88504 48.39375 274.99442Q47.55 273.93192 47.55 271.51004ZM48.628124 271.51004Q48.628124 273.61942 49.128124 274.32254Q49.628124 275.02567 50.346874 275.02567Q51.08125 275.02567 51.565624 274.32254Q52.065624 273.61942 52.065624 271.51004Q52.065624 269.38504 51.565624 268.69754Q51.08125 267.99442 50.33125 267.99442Q49.6125 267.99442 49.175 268.6038Q48.628124 269.38504 48.628124 271.51004ZM55.14375 275.74442L55.14375 274.5413L56.346874 274.5413L56.346874 275.74442L55.14375 275.74442ZM61.51875 275.74442L60.471874 275.74442L60.471874 269.02567Q60.08125 269.38504 59.45625 269.76004Q58.846874 270.11942 58.3625 270.2913L58.3625 269.27567Q59.2375 268.8538 59.89375 268.27567Q60.565624 267.68192 60.846874 267.11942L61.51875 267.11942L61.51875 275.74442Z" fill-rule="nonzero"/><path fill="#000000" d="M47.55 151.26006Q47.55 149.7288 47.8625 148.80693Q48.175 147.86943 48.784374 147.36943Q49.409374 146.86943 50.346874 146.86943Q51.034374 146.86943 51.55 147.15068Q52.08125 147.43193 52.425 147.96318Q52.76875 148.4788 52.95625 149.2288Q53.14375 149.9788 53.14375 151.26006Q53.14375 152.77568 52.83125 153.69756Q52.534374 154.61943 51.909374 155.13506Q51.3 155.63506 50.346874 155.63506Q49.1125 155.63506 48.39375 154.74443Q47.55 153.68193 47.55 151.26006ZM48.628124 151.26006Q48.628124 153.36943 49.128124 154.07256Q49.628124 154.77568 50.346874 154.77568Q51.08125 154.77568 51.565624 154.07256Q52.065624 153.36943 52.065624 151.26006Q52.065624 149.13506 51.565624 148.44756Q51.08125 147.74443 50.33125 147.74443Q49.6125 147.74443 49.175 148.3538Q48.628124 149.13506 48.628124 151.26006ZM55.14375 155.49443L55.14375 154.2913L56.346874 154.2913L56.346874 155.49443L55.14375 155.49443ZM57.55 153.24443L58.659374 153.15068Q58.784374 153.96318 59.221874 154.36943Q59.675 154.77568 60.315624 154.77568Q61.065624 154.77568 61.596874 154.19756Q62.128124 153.61943 62.128124 152.68193Q62.128124 151.77568 61.6125 151.26006Q61.1125 150.7288 60.284374 150.7288Q59.784374 150.7288 59.3625 150.96318Q58.95625 151.19756 58.721874 151.55693L57.7375 151.43193L58.565624 147.02568L62.846874 147.02568L62.846874 148.02568L59.409374 148.02568L58.95625 150.33818Q59.721874 149.7913 60.565624 149.7913Q61.690624 149.7913 62.45625 150.57256Q63.2375 151.3538 63.2375 152.58818Q63.2375 153.74443 62.565624 154.6038Q61.7375 155.63506 60.315624 155.63506Q59.14375 155.63506 58.39375 154.9788Q57.659374 154.32256 57.55 153.24443Z" fill-rule="nonzero"/><path fill="#000000" d="M61.51875 103.70558L60.471874 103.70558L60.471874 96.98683Q60.08125 97.34621 59.45625 97.72121Q58.846874 98.08058 58.3625 98.25246L58.3625 97.23683Q59.2375 96.81496 59.89375 96.23683Q60.565624 95.64308 60.846874 95.08058L61.51875 95.08058L61.51875 103.70558Z" fill-rule="nonzero"/><path fill="#000000" d="M73.92204 620.71564Q73.92204 619.1844 74.23454 618.2625Q74.54704 617.325 75.15642 616.825Q75.78142 616.325 76.71892 616.325Q77.40642 616.325 77.92204 616.60626Q78.45329 616.8875 78.79704 617.41876Q79.14079 617.9344 79.32829 618.6844Q79.51579 619.4344 79.51579 620.71564Q79.51579 622.23126 79.20329 623.15314Q78.90642 624.075 78.28142 624.59064Q77.67204 625.09064 76.71892 625.09064Q75.48454 625.09064 74.76579 624.2Q73.92204 623.1375 73.92204 620.71564ZM75.00017 620.71564Q75.00017 622.825 75.50017 623.52814Q76.00017 624.23126 76.71892 624.23126Q77.45329 624.23126 77.93767 623.52814Q78.43767 622.825 78.43767 620.71564Q78.43767 618.59064 77.93767 617.90314Q77.45329 617.2 76.70329 617.2Q75.98454 617.2 75.54704 617.8094Q75.00017 618.59064 75.00017 620.71564Z" fill-rule="nonzero"/><path fill="#000000" d="M260.5079 623.9344L260.5079 624.95L254.8204 624.95Q254.8204 624.575 254.9454 624.21564Q255.16415 623.6375 255.6329 623.075Q256.11728 622.5125 257.02353 621.77814Q258.42978 620.6219 258.91415 619.95Q259.41415 619.27814 259.41415 618.6844Q259.41415 618.0594 258.96103 617.6375Q258.5079 617.2 257.78915 617.2Q257.02353 617.2 256.5704 617.65314Q256.11728 618.10626 256.10165 618.91876L255.02353 618.8094Q255.1329 617.59064 255.85165 616.96564Q256.58603 616.325 257.8204 616.325Q259.05478 616.325 259.77353 617.0125Q260.49228 617.7 260.49228 618.71564Q260.49228 619.23126 260.27353 619.73126Q260.0704 620.21564 259.5704 620.77814Q259.08603 621.325 257.96103 622.27814Q257.0079 623.075 256.72665 623.3719Q256.46103 623.65314 256.28915 623.9344L260.5079 623.9344ZM261.96103 622.7L263.0704 622.60626Q263.1954 623.41876 263.6329 623.825Q264.08603 624.23126 264.72665 624.23126Q265.47665 624.23126 266.0079 623.65314Q266.53915 623.075 266.53915 622.1375Q266.53915 621.23126 266.02353 620.71564Q265.52353 620.1844 264.6954 620.1844Q264.1954 620.1844 263.77353 620.41876Q263.36728 620.65314 263.1329 621.0125L262.14853 620.8875L262.97665 616.48126L267.2579 616.48126L267.2579 617.48126L263.8204 617.48126L263.36728 619.79376Q264.1329 619.2469 264.97665 619.2469Q266.10165 619.2469 266.86728 620.02814Q267.64853 620.8094 267.64853 622.04376Q267.64853 623.2 266.97665 624.0594Q266.14853 625.09064 264.72665 625.09064Q263.55478 625.09064 262.80478 624.4344Q262.0704 623.77814 261.96103 622.7Z" fill-rule="nonzero"/><path fill="#000000" d="M439.5 622.7L440.60938 622.60626Q440.73438 623.41876 441.17188 623.825Q441.625 624.23126 442.26562 624.23126Q443.01562 624.23126 443.54688 623.65314Q444.07812 623.075 444.07812 622.1375Q444.07812 621.23126 443.5625 620.71564Q443.0625 620.1844 442.23438 620.1844Q441.73438 620.1844 441.3125 620.41876Q440.90625 620.65314 440.67188 621.0125L439.6875 620.8875L440.51562 616.48126L444.79688 616.48126L444.79688 617.48126L441.35938 617.48126L440.90625 619.79376Q441.67188 619.2469 442.51562 619.2469Q443.64062 619.2469 444.40625 620.02814Q445.1875 620.8094 445.1875 622.04376Q445.1875 623.2 444.51562 624.0594Q443.6875 625.09064 442.26562 625.09064Q441.09375 625.09064 440.34375 624.4344Q439.60938 623.77814 439.5 622.7ZM446.5 620.71564Q446.5 619.1844 446.8125 618.2625Q447.125 617.325 447.73438 616.825Q448.35938 616.325 449.29688 616.325Q449.98438 616.325 450.5 616.60626Q451.03125 616.8875 451.375 617.41876Q451.71875 617.9344 451.90625 618.6844Q452.09375 619.4344 452.09375 620.71564Q452.09375 622.23126 451.78125 623.15314Q451.48438 624.075 450.85938 624.59064Q450.25 625.09064 449.29688 625.09064Q448.0625 625.09064 447.34375 624.2Q446.5 623.1375 446.5 620.71564ZM447.57812 620.71564Q447.57812 622.825 448.07812 623.52814Q448.57812 624.23126 449.29688 624.23126Q450.03125 624.23126 450.51562 623.52814Q451.01562 622.825 451.01562 620.71564Q451.01562 618.59064 450.51562 617.90314Q450.03125 617.2 449.28125 617.2Q448.5625 617.2 448.125 617.8094Q447.57812 618.59064 447.57812 620.71564Z" fill-rule="nonzero"/><path fill="#000000" d="M624.1015 617.48126L624.1015 616.46564L629.664 616.46564L629.664 617.29376Q628.8515 618.16876 628.039 619.6219Q627.2421 621.0594 626.8046 622.59064Q626.4765 623.66876 626.3984 624.95L625.3046 624.95Q625.32025 623.9344 625.69525 622.4969Q626.0859 621.0594 626.789 619.73126Q627.50775 618.40314 628.32025 617.48126L624.1015 617.48126ZM631.039 622.7L632.1484 622.60626Q632.2734 623.41876 632.7109 623.825Q633.164 624.23126 633.8046 624.23126Q634.5546 624.23126 635.0859 623.65314Q635.6171 623.075 635.6171 622.1375Q635.6171 621.23126 635.1015 620.71564Q634.6015 620.1844 633.7734 620.1844Q633.2734 620.1844 632.8515 620.41876Q632.44525 620.65314 632.2109 621.0125L631.2265 620.8875L632.0546 616.48126L636.3359 616.48126L636.3359 617.48126L632.8984 617.48126L632.44525 619.79376Q633.2109 619.2469 634.0546 619.2469Q635.1796 619.2469 635.94525 620.02814Q636.7265 620.8094 636.7265 622.04376Q636.7265 623.2 636.0546 624.0594Q635.2265 625.09064 633.8046 625.09064Q632.63275 625.09064 631.88275 624.4344Q631.1484 623.77814 631.039 622.7Z" fill-rule="nonzero"/><path fill="#000000" d="M809.0467 624.95L807.9998 624.95L807.9998 618.23126Q807.6092 618.59064 806.9842 618.96564Q806.3748 619.325 805.89044 619.4969L805.89044 618.48126Q806.76544 618.0594 807.4217 617.48126Q808.09357 616.8875 808.3748 616.325L809.0467 616.325L809.0467 624.95ZM812.07794 620.71564Q812.07794 619.1844 812.39044 618.2625Q812.70294 617.325 813.3123 616.825Q813.9373 616.325 814.8748 616.325Q815.5623 616.325 816.07794 616.60626Q816.6092 616.8875 816.95294 617.41876Q817.2967 617.9344 817.4842 618.6844Q817.6717 619.4344 817.6717 620.71564Q817.6717 622.23126 817.3592 623.15314Q817.0623 624.075 816.4373 624.59064Q815.82794 625.09064 814.8748 625.09064Q813.64044 625.09064 812.9217 624.2Q812.07794 623.1375 812.07794 620.71564ZM813.15607 620.71564Q813.15607 622.825 813.65607 623.52814Q814.15607 624.23126 814.8748 624.23126Q815.6092 624.23126 816.09357 623.52814Q816.59357 622.825 816.59357 620.71564Q816.59357 618.59064 816.09357 617.90314Q815.6092 617.2 814.8592 617.2Q814.14044 617.2 813.70294 617.8094Q813.15607 618.59064 813.15607 620.71564ZM819.07794 620.71564Q819.07794 619.1844 819.39044 618.2625Q819.70294 617.325 820.3123 616.825Q820.9373 616.325 821.8748 616.325Q822.5623 616.325 823.07794 616.60626Q823.6092 616.8875 823.95294 617.41876Q824.2967 617.9344 824.4842 618.6844Q824.6717 619.4344 824.6717 620.71564Q824.6717 622.23126 824.3592 623.15314Q824.0623 624.075 823.4373 624.59064Q822.82794 625.09064 821.8748 625.09064Q820.64044 625.09064 819.9217 624.2Q819.07794 623.1375 819.07794 620.71564ZM820.15607 620.71564Q820.15607 622.825 820.65607 623.52814Q821.15607 624.23126 821.8748 624.23126Q822.6092 624.23126 823.09357 623.52814Q823.59357 622.825 823.59357 620.71564Q823.59357 618.59064 823.09357 617.90314Q822.6092 617.2 821.8592 617.2Q821.14044 617.2 820.70294 617.8094Q820.15607 618.59064 820.15607 620.71564Z" fill-rule="nonzero"/><path fill="#757575" d="M34.20625 41.175Q34.20625 39.64375 34.971874 38.565624Q35.753124 37.4875 37.221874 37.4875Q38.565624 37.4875 39.440624 38.45625Q40.33125 39.409374 40.33125 41.284374Q40.33125 43.096874 39.440624 44.08125Q38.55 45.05 37.2375 45.05Q35.940624 45.05 35.065624 44.096874Q34.20625 43.128124 34.20625 41.175ZM37.26875 38.70625Q36.6125 38.70625 36.175 39.26875Q35.753124 39.83125 35.753124 41.346874Q35.753124 42.721874 36.190624 43.284374Q36.628124 43.846874 37.26875 43.846874Q37.940624 43.846874 38.3625 43.284374Q38.8 42.70625 38.8 41.20625Q38.8 39.815624 38.3625 39.26875Q37.925 38.70625 37.26875 38.70625ZM37.284374 52.58125L45.1125 37.4875L46.534374 37.4875L38.7375 52.58125L37.284374 52.58125ZM43.471874 48.690624Q43.471874 47.14375 44.2375 46.08125Q45.01875 45.003124 46.4875 45.003124Q47.83125 45.003124 48.70625 45.971874Q49.596874 46.925 49.596874 48.8Q49.596874 50.6125 48.70625 51.596874Q47.815624 52.58125 46.503124 52.58125Q45.20625 52.58125 44.33125 51.6125Q43.471874 50.628124 43.471874 48.690624ZM46.534374 46.221874Q45.878124 46.221874 45.440624 46.784374Q45.003124 47.346874 45.003124 48.8625Q45.003124 50.2375 45.440624 50.8Q45.878124 51.3625 46.534374 51.3625Q47.20625 51.3625 47.628124 50.8Q48.065624 50.2375 48.065624 48.721874Q48.065624 47.346874 47.628124 46.784374Q47.190624 46.221874 46.534374 46.221874ZM57.659374 48.95625L59.409374 48.675Q59.55 49.721874 60.221874 50.284374Q60.89375 50.83125 62.096874 50.83125Q63.3 50.83125 63.878124 50.346874Q64.47188 49.846874 64.47188 49.190624Q64.47188 48.596874 63.95625 48.253124Q63.596874 48.01875 62.159374 47.659374Q60.221874 47.159374 59.471874 46.815624Q58.7375 46.45625 58.346874 45.83125Q57.95625 45.190624 57.95625 44.425Q57.95625 43.7375 58.26875 43.14375Q58.596874 42.55 59.14375 42.159374Q59.55 41.8625 60.253124 41.659374Q60.971874 41.440624 61.784374 41.440624Q63.003124 41.440624 63.925 41.8Q64.84688 42.14375 65.28438 42.753124Q65.72188 43.346874 65.89375 44.346874L64.175 44.58125Q64.05 43.784374 63.4875 43.346874Q62.925 42.89375 61.909374 42.89375Q60.690624 42.89375 60.175 43.3Q59.659374 43.690624 59.659374 44.221874Q59.659374 44.565624 59.878124 44.846874Q60.08125 45.128124 60.55 45.315624Q60.815624 45.409374 62.096874 45.753124Q63.971874 46.253124 64.70625 46.58125Q65.44063 46.89375 65.8625 47.503124Q66.28438 48.096874 66.28438 49.003124Q66.28438 49.878124 65.76875 50.659374Q65.25313 51.440624 64.28438 51.8625Q63.315624 52.284374 62.096874 52.284374Q60.08125 52.284374 59.01875 51.440624Q57.95625 50.596874 57.659374 48.95625ZM68.28438 56.05L68.09688 54.39375Q68.675 54.55 69.09688 54.55Q69.69063 54.55 70.03438 54.346874Q70.39375 54.159374 70.6125 53.815624Q70.78438 53.55 71.15938 52.503124Q71.20625 52.346874 71.31563 52.065624L67.37813 41.675L69.26875 41.675L71.425 47.690624Q71.84688 48.83125 72.175 50.08125Q72.4875 48.878124 72.89375 47.721874L75.1125 41.675L76.87813 41.675L72.925 52.221874Q72.3 53.940624 71.94063 54.58125Q71.47188 55.45625 70.8625 55.846874Q70.26875 56.253124 69.425 56.253124Q68.90938 56.253124 68.28438 56.05ZM78.3625 52.05L78.3625 41.675L79.95625 41.675L79.95625 43.159374Q81.09688 41.440624 83.25313 41.440624Q84.19063 41.440624 84.97188 41.784374Q85.76875 42.1125 86.15938 42.659374Q86.55 43.20625 86.70625 43.95625Q86.8 44.45625 86.8 45.675L86.8 52.05L85.03438 52.05L85.03438 45.7375Q85.03438 44.659374 84.83125 44.128124Q84.62813 43.596874 84.09688 43.284374Q83.58125 42.971874 82.87813 42.971874Q81.75313 42.971874 80.94063 43.690624Q80.12813 44.39375 80.12813 46.378124L80.12813 52.05L78.3625 52.05ZM95.14375 48.253124L96.8625 48.471874Q96.58125 50.26875 95.40938 51.284374Q94.25313 52.284374 92.55 52.284374Q90.425 52.284374 89.12813 50.89375Q87.83125 49.503124 87.83125 46.909374Q87.83125 45.221874 88.37813 43.971874Q88.94063 42.70625 90.08125 42.08125Q91.22188 41.440624 92.56563 41.440624Q94.25313 41.440624 95.31563 42.3Q96.39375 43.159374 96.70625 44.721874L94.9875 44.9875Q94.75313 43.940624 94.12813 43.425Q93.50313 42.89375 92.62813 42.89375Q91.3 42.89375 90.47188 43.846874Q89.64375 44.8 89.64375 46.846874Q89.64375 48.940624 90.44063 49.89375Q91.2375 50.83125 92.53438 50.83125Q93.56563 50.83125 94.25313 50.20625Q94.95625 49.565624 95.14375 48.253124ZM105.47188 48.70625L107.28438 48.940624Q106.8625 50.51875 105.69063 51.409374Q104.53438 52.284374 102.72188 52.284374Q100.45625 52.284374 99.1125 50.89375Q97.78438 49.4875 97.78438 46.95625Q97.78438 44.33125 99.12813 42.89375Q100.47188 41.440624 102.62813 41.440624Q104.70625 41.440624 106.01875 42.8625Q107.34688 44.26875 107.34688 46.846874Q107.34688 47.003124 107.33125 47.315624L99.59688 47.315624Q99.69063 49.01875 100.56563 49.925Q101.44063 50.83125 102.7375 50.83125Q103.70625 50.83125 104.37813 50.33125Q105.06563 49.815624 105.47188 48.70625ZM99.69063 45.8625L105.4875 45.8625Q105.37813 44.565624 104.83125 43.909374Q103.9875 42.89375 102.64375 42.89375Q101.44063 42.89375 100.6125 43.70625Q99.78438 44.503124 99.69063 45.8625ZM116.09688 52.05L116.09688 50.7375Q115.1125 52.284374 113.19063 52.284374Q111.95625 52.284374 110.90938 51.596874Q109.87813 50.909374 109.3 49.690624Q108.7375 48.471874 108.7375 46.878124Q108.7375 45.315624 109.25313 44.05Q109.76875 42.784374 110.8 42.1125Q111.84688 41.440624 113.1125 41.440624Q114.05 41.440624 114.78438 41.846874Q115.51875 42.2375 115.9875 42.8625L115.9875 37.7375L117.72188 37.7375L117.72188 52.05L116.09688 52.05ZM110.53438 46.878124Q110.53438 48.8625 111.37813 49.846874Q112.22188 50.83125 113.3625 50.83125Q114.51875 50.83125 115.31563 49.89375Q116.12813 48.95625 116.12813 47.01875Q116.12813 44.89375 115.3 43.89375Q114.4875 42.89375 113.28438 42.89375Q112.1125 42.89375 111.31563 43.8625Q110.53438 44.815624 110.53438 46.878124ZM126.3625 56.01875L126.3625 41.675L127.97188 41.675L127.97188 43.01875Q128.53438 42.2375 129.2375 41.846874Q129.95625 41.440624 130.97188 41.440624Q132.3 41.440624 133.31563 42.128124Q134.33125 42.815624 134.84688 44.065624Q135.37813 45.3 135.37813 46.784374Q135.37813 48.378124 134.8 49.659374Q134.2375 50.925 133.14375 51.6125Q132.05 52.284374 130.84688 52.284374Q129.97188 52.284374 129.26875 51.909374Q128.58125 51.534374 128.12813 50.971874L128.12813 56.01875L126.3625 56.01875ZM127.95625 46.925Q127.95625 48.925 128.76875 49.878124Q129.58125 50.83125 130.7375 50.83125Q131.90938 50.83125 132.7375 49.846874Q133.58125 48.8625 133.58125 46.76875Q133.58125 44.8 132.75313 43.815624Q131.94063 42.815624 130.81563 42.815624Q129.69063 42.815624 128.81563 43.878124Q127.95625 44.925 127.95625 46.925ZM144.47188 48.70625L146.28438 48.940624Q145.8625 50.51875 144.69063 51.409374Q143.53438 52.284374 141.72188 52.284374Q139.45625 52.284374 138.1125 50.89375Q136.78438 49.4875 136.78438 46.95625Q136.78438 44.33125 138.12813 42.89375Q139.47188 41.440624 141.62813 41.440624Q143.70625 41.440624 145.01875 42.8625Q146.34688 44.26875 146.34688 46.846874Q146.34688 47.003124 146.33125 47.315624L138.59688 47.315624Q138.69063 49.01875 139.56563 49.925Q140.44063 50.83125 141.7375 50.83125Q142.70625 50.83125 143.37813 50.33125Q144.06563 49.815624 144.47188 48.70625ZM138.69063 45.8625L144.4875 45.8625Q144.37813 44.565624 143.83125 43.909374Q142.9875 42.89375 141.64375 42.89375Q140.44063 42.89375 139.6125 43.70625Q138.78438 44.503124 138.69063 45.8625ZM148.34688 52.05L148.34688 41.675L149.925 41.675L149.925 43.253124Q150.53438 42.14375 151.05 41.8Q151.56563 41.440624 152.175 41.440624Q153.06563 41.440624 153.9875 42.003124L153.37813 43.64375Q152.7375 43.253124 152.09688 43.253124Q151.51875 43.253124 151.05 43.6125Q150.59688 43.95625 150.39375 44.565624Q150.1125 45.503124 150.1125 46.6125L150.1125 52.05L148.34688 52.05ZM160.65938 48.95625L162.40938 48.675Q162.55 49.721874 163.22188 50.284374Q163.89375 50.83125 165.09688 50.83125Q166.3 50.83125 166.87813 50.346874Q167.47188 49.846874 167.47188 49.190624Q167.47188 48.596874 166.95625 48.253124Q166.59688 48.01875 165.15938 47.659374Q163.22188 47.159374 162.47188 46.815624Q161.7375 46.45625 161.34688 45.83125Q160.95625 45.190624 160.95625 44.425Q160.95625 43.7375 161.26875 43.14375Q161.59688 42.55 162.14375 42.159374Q162.55 41.8625 163.25313 41.659374Q163.97188 41.440624 164.78438 41.440624Q166.00313 41.440624 166.925 41.8Q167.84688 42.14375 168.28438 42.753124Q168.72188 43.346874 168.89375 44.346874L167.175 44.58125Q167.05 43.784374 166.4875 43.346874Q165.925 42.89375 164.90938 42.89375Q163.69063 42.89375 163.175 43.3Q162.65938 43.690624 162.65938 44.221874Q162.65938 44.565624 162.87813 44.846874Q163.08125 45.128124 163.55 45.315624Q163.81563 45.409374 165.09688 45.753124Q166.97188 46.253124 167.70625 46.58125Q168.44063 46.89375 168.8625 47.503124Q169.28438 48.096874 169.28438 49.003124Q169.28438 49.878124 168.76875 50.659374Q168.25313 51.440624 167.28438 51.8625Q166.31563 52.284374 165.09688 52.284374Q163.08125 52.284374 162.01875 51.440624Q160.95625 50.596874 160.65938 48.95625ZM178.47188 48.70625L180.28438 48.940624Q179.8625 50.51875 178.69063 51.409374Q177.53438 52.284374 175.72188 52.284374Q173.45625 52.284374 172.1125 50.89375Q170.78438 49.4875 170.78438 46.95625Q170.78438 44.33125 172.12813 42.89375Q173.47188 41.440624 175.62813 41.440624Q177.70625 41.440624 179.01875 42.8625Q180.34688 44.26875 180.34688 46.846874Q180.34688 47.003124 180.33125 47.315624L172.59688 47.315624Q172.69063 49.01875 173.56563 49.925Q174.44063 50.83125 175.7375 50.83125Q176.70625 50.83125 177.37813 50.33125Q178.06563 49.815624 178.47188 48.70625ZM172.69063 45.8625L178.4875 45.8625Q178.37813 44.565624 177.83125 43.909374Q176.9875 42.89375 175.64375 42.89375Q174.44063 42.89375 173.6125 43.70625Q172.78438 44.503124 172.69063 45.8625ZM189.14375 48.253124L190.8625 48.471874Q190.58125 50.26875 189.40938 51.284374Q188.25313 52.284374 186.55 52.284374Q184.425 52.284374 183.12813 50.89375Q181.83125 49.503124 181.83125 46.909374Q181.83125 45.221874 182.37813 43.971874Q182.94063 42.70625 184.08125 42.08125Q185.22188 41.440624 186.56563 41.440624Q188.25313 41.440624 189.31563 42.3Q190.39375 43.159374 190.70625 44.721874L188.9875 44.9875Q188.75313 43.940624 188.12813 43.425Q187.50313 42.89375 186.62813 42.89375Q185.3 42.89375 184.47188 43.846874Q183.64375 44.8 183.64375 46.846874Q183.64375 48.940624 184.44063 49.89375Q185.2375 50.83125 186.53438 50.83125Q187.56563 50.83125 188.25313 50.20625Q188.95625 49.565624 189.14375 48.253124ZM191.72188 46.8625Q191.72188 43.9875 193.31563 42.596874Q194.65938 41.440624 196.58125 41.440624Q198.72188 41.440624 200.06563 42.846874Q201.425 44.253124 201.425 46.721874Q201.425 48.721874 200.83125 49.878124Q200.2375 51.01875 199.08125 51.659374Q197.94063 52.284374 196.58125 52.284374Q194.39375 52.284374 193.05 50.89375Q191.72188 49.4875 191.72188 46.8625ZM193.51875 46.8625Q193.51875 48.8625 194.37813 49.846874Q195.25313 50.83125 196.58125 50.83125Q197.89375 50.83125 198.75313 49.846874Q199.62813 48.846874 199.62813 46.8Q199.62813 44.878124 198.75313 43.89375Q197.87813 42.89375 196.58125 42.89375Q195.25313 42.89375 194.37813 43.89375Q193.51875 44.878124 193.51875 46.8625ZM203.3625 52.05L203.3625 41.675L204.95625 41.675L204.95625 43.159374Q206.09688 41.440624 208.25313 41.440624Q209.19063 41.440624 209.97188 41.784374Q210.76875 42.1125 211.15938 42.659374Q211.55 43.20625 211.70625 43.95625Q211.8 44.45625 211.8 45.675L211.8 52.05L210.03438 52.05L210.03438 45.7375Q210.03438 44.659374 209.83125 44.128124Q209.62813 43.596874 209.09688 43.284374Q208.58125 42.971874 207.87813 42.971874Q206.75313 42.971874 205.94063 43.690624Q205.12813 44.39375 205.12813 46.378124L205.12813 52.05L203.3625 52.05ZM220.09688 52.05L220.09688 50.7375Q219.1125 52.284374 217.19063 52.284374Q215.95625 52.284374 214.90938 51.596874Q213.87813 50.909374 213.3 49.690624Q212.7375 48.471874 212.7375 46.878124Q212.7375 45.315624 213.25313 44.05Q213.76875 42.784374 214.8 42.1125Q215.84688 41.440624 217.1125 41.440624Q218.05 41.440624 218.78438 41.846874Q219.51875 42.2375 219.9875 42.8625L219.9875 37.7375L221.72188 37.7375L221.72188 52.05L220.09688 52.05ZM214.53438 46.878124Q214.53438 48.8625 215.37813 49.846874Q216.22188 50.83125 217.3625 50.83125Q218.51875 50.83125 219.31563 49.89375Q220.12813 48.95625 220.12813 47.01875Q220.12813 44.89375 219.3 43.89375Q218.4875 42.89375 217.28438 42.89375Q216.1125 42.89375 215.31563 43.8625Q214.53438 44.815624 214.53438 46.878124Z" fill-rule="nonzero"/></svg>